<svg xmlns="http://www.w3.org/2000/svg" viewBox="0 0 98.51 13.43">
    <g id=''>
        <g>
            <path class="cls-1"
                  d="M3.92,1.64q0-.09.18-.09a.43.43,0,0,1,.3.11,1.7,1.7,0,0,1,.35.46.75.75,0,0,1,.07.12l.09.14a.91.91,0,0,1,0,.16,1.55,1.55,0,0,1,0,.21v.09l-.13,1a1.78,1.78,0,0,0,0,.26c0,.1,0,.2,0,.28l-.06.44c-.14,1.53-.29,2.71-.45,3.53S4,9.55,3.8,9.58a.47.47,0,0,1-.42-.22.78.78,0,0,1-.18-.52V8.65l.06-.37c.06-.34.16-1.24.32-2.69V5.32a2.24,2.24,0,0,0-.52.09l-.46.11a1.65,1.65,0,0,0-.46.25,2.78,2.78,0,0,1-.6.34.69.69,0,0,1-.36.06c0,.17-.15.72-.4,1.67l-.16.6a4,4,0,0,1-.22.79c-.14,0-.24-.16-.3-.47A3.58,3.58,0,0,1,0,7.91a4.48,4.48,0,0,1,.05-.64c0-.22.11-.52.2-.92A6.67,6.67,0,0,0,.47,4.88c0-.12,0-.21,0-.27a.21.21,0,0,0,.16-.12,1,1,0,0,0,.14-.33c.21-.87.34-1.47.39-1.81L1.2,2l.05-.34a.27.27,0,0,1,.13.05.13.13,0,0,1,.07.11l.1.45a6.77,6.77,0,0,1,.09,1.37v.55a3.06,3.06,0,0,0,0,.4,1.78,1.78,0,0,0,.4-.17l.22-.08a.45.45,0,0,1,.18,0l.28-.16A1.31,1.31,0,0,1,3.2,4,.62.62,0,0,1,3.43,4a.74.74,0,0,0,.22.08c.16,0,.27-.21.32-.63A8.27,8.27,0,0,0,4,2.38a2.91,2.91,0,0,0,0-.47A.72.72,0,0,0,3.92,1.64Z"/>
            <path class="cls-1"
                  d="M5.75,9.05a5.3,5.3,0,0,1-.17-1.37,5,5,0,0,1,.16-1.29,3.35,3.35,0,0,1,.4-1,1.46,1.46,0,0,1,.17-.22c.13-.16.23-.3.31-.42a1,1,0,0,0,.16-.36l.24,0,.24,0,.22.16.12-.06.09-.06H8l0-.14.4.26a2.47,2.47,0,0,1,.49.37,1.08,1.08,0,0,1,.24.45.67.67,0,0,1,0,.24A2.07,2.07,0,0,1,9,6.19c0,.15-.09.28-.12.41A1.17,1.17,0,0,0,8.84,7a1.27,1.27,0,0,0,0,.26s.1.1.28.18a.85.85,0,0,0,.19.09l.22.12a.34.34,0,0,1,.13.19c0,.13-.08.23-.35.3l-.18,0A2.2,2.2,0,0,1,8.66,8L8.55,8l-.1,0h0c-.05,0-.18.16-.37.44a4.85,4.85,0,0,1-.64.81,1.57,1.57,0,0,1-.66.38,1.38,1.38,0,0,1-.28.05A.63.63,0,0,1,6,9.5.78.78,0,0,1,5.75,9.05Zm.53-.49a1,1,0,0,0,0,.13s0,.05.06.05l.17,0a2.34,2.34,0,0,0,.77-.64A3.54,3.54,0,0,0,7.91,7,2,2,0,0,0,8,6.31,2.71,2.71,0,0,0,8,5.9s0,0-.13-.09-.13-.08-.13-.11a.12.12,0,0,1,0-.1,1.42,1.42,0,0,0-.53.08,1.13,1.13,0,0,0-.65.62,3,3,0,0,0-.33,1.15,3.94,3.94,0,0,0,0,.4A2.76,2.76,0,0,0,6.28,8.56Z"/>
            <path class="cls-1"
                  d="M11.21,6.23l0-.25a4,4,0,0,1,.67-1,2.16,2.16,0,0,1,.84-.45,2.89,2.89,0,0,1,.91-.15,2.74,2.74,0,0,1,.92.16,1.94,1.94,0,0,1,1.2,1.25,1.51,1.51,0,0,1,.08.48,3.62,3.62,0,0,1,0,.43,2,2,0,0,1-.39.9,1.26,1.26,0,0,1-.68.51,1.94,1.94,0,0,1-.55.06,2.82,2.82,0,0,1-.71-.09,2.14,2.14,0,0,1-.59-.22s0,.09,0,.19V8.2a1.63,1.63,0,0,1,0,.24,2.35,2.35,0,0,0,0,.34C13,8.91,13,9,13,9l0,.25a10.05,10.05,0,0,0,.1,1.21c.05.3.08.52.09.65A4.15,4.15,0,0,1,13,12.56a1.14,1.14,0,0,1-.72.8l-.19,0a.51.51,0,0,1-.42-.25,2.18,2.18,0,0,1-.12-.22,1.64,1.64,0,0,1-.08-.19c-.12-.25-.18-.39-.21-.43l0-.06V12l-.44-1.24a2.49,2.49,0,0,0,.46.71,2.08,2.08,0,0,1,.32.45l.15.27v.3h.08c.07,0,.12-.13.15-.37a6.31,6.31,0,0,0,.06-1c0-.49,0-1.15-.09-2a10.37,10.37,0,0,0-.13-1.3,3.76,3.76,0,0,1-.79.1c-.43,0-.68-.12-.73-.36,0,0,0-.06.08-.12l.22-.17a7.12,7.12,0,0,0,.57-.47.41.41,0,0,0,.17-.31.35.35,0,0,0,0-.13l0,0h-.06Zm1.68,1.1s0,0,.08.07l.12,0h.06A2.25,2.25,0,0,0,13.79,7a3.17,3.17,0,0,0,.53-.87,1.61,1.61,0,0,0,.13-.54.62.62,0,0,0,0-.25.47.47,0,0,0-.48-.24h-.17l-.51.06a1.93,1.93,0,0,0-.41.09,1.42,1.42,0,0,1,.08.48,3.92,3.92,0,0,1-.06.57,3.91,3.91,0,0,0,0,.45A2.68,2.68,0,0,0,12.89,7.33Z"/>
            <path class="cls-1"
                  d="M17.38,6.23l0-.25a4,4,0,0,1,.68-1,2,2,0,0,1,.84-.45,2.85,2.85,0,0,1,.91-.15,2.74,2.74,0,0,1,.92.16A1.94,1.94,0,0,1,22,5.83a1.51,1.51,0,0,1,.07.48,3.46,3.46,0,0,1,0,.43,2.29,2.29,0,0,1-.39.9,1.26,1.26,0,0,1-.68.51,1.94,1.94,0,0,1-.55.06,2.82,2.82,0,0,1-.71-.09,2.14,2.14,0,0,1-.59-.22.82.82,0,0,0,0,.19V8.2a1.63,1.63,0,0,1,0,.24,2.35,2.35,0,0,0,0,.34c0,.13,0,.22,0,.26l0,.25a10.57,10.57,0,0,0,.11,1.21c.05.3.08.52.09.65a4.15,4.15,0,0,1-.16,1.41,1.14,1.14,0,0,1-.72.8l-.19,0a.51.51,0,0,1-.42-.25,2.18,2.18,0,0,1-.12-.22l-.09-.19c-.11-.25-.18-.39-.2-.43l0-.06V12L17,10.75a2.29,2.29,0,0,0,.46.71,2.5,2.5,0,0,1,.32.45l.15.27v.3H18c.07,0,.12-.13.15-.37a6.31,6.31,0,0,0,.06-1c0-.49,0-1.15-.09-2S18,7.87,18,7.81a3.76,3.76,0,0,1-.79.1c-.43,0-.68-.12-.73-.36,0,0,0-.06.07-.12l.23-.17a7.12,7.12,0,0,0,.57-.47.45.45,0,0,0,.17-.31.24.24,0,0,0,0-.13l0,0H17.4Zm1.68,1.1s0,0,.07.07l.13,0h.06A2.25,2.25,0,0,0,20,7a3.17,3.17,0,0,0,.52-.87,1.44,1.44,0,0,0,.14-.54.62.62,0,0,0-.05-.25.47.47,0,0,0-.48-.24h-.17l-.51.06a1.93,1.93,0,0,0-.41.09,1.42,1.42,0,0,1,.08.48,3.92,3.92,0,0,1-.06.57,4.14,4.14,0,0,0,0,.45A2.7,2.7,0,0,0,19.06,7.33Z"/>
            <path class="cls-1"
                  d="M22.64,5.58c0-.13.08-.19.24-.19a.44.44,0,0,1,.15,0h.18a.22.22,0,0,0,.11,0A1.7,1.7,0,0,0,23.77,5a1.15,1.15,0,0,1,.39-.44,1.23,1.23,0,0,1,.63-.13.48.48,0,0,1,.4.15.76.76,0,0,1,.12.49A3.76,3.76,0,0,1,25,6.22q-.16.47-.24.75a2.08,2.08,0,0,0-.07.55c.18,0,.36-.13.55-.39A9.23,9.23,0,0,0,26,5.88a5.13,5.13,0,0,1,.66-1.1h.29a.59.59,0,0,1,.47.15.9.9,0,0,1,.13.58,3.36,3.36,0,0,1-.22.84c0,.13-.06.22-.08.29-.12.39-.2.65-.23.79s-.09.71-.17,1.44c0,.24,0,.4,0,.48s0,.27,0,.63a3.25,3.25,0,0,1,0,.44,1.7,1.7,0,0,1-.05.44,4.33,4.33,0,0,1-.78,1.8,1.83,1.83,0,0,1-1.54.77A.67.67,0,0,1,24,13a1.53,1.53,0,0,1-.26-.78,5,5,0,0,1,.2-1.55,3.46,3.46,0,0,1,.76-1.23v.09a1,1,0,0,1,0,.18.71.71,0,0,0,0,.14s0,.06,0,.06.05,0,.1-.09c-.12.29-.21.51-.25.65a1.62,1.62,0,0,0-.07.44c0,.44.12.65.36.65s.6-.29.83-.89a1.73,1.73,0,0,0,.1-.33,2.66,2.66,0,0,0,0-.3,2.37,2.37,0,0,1,0-.24,3.61,3.61,0,0,1,.05-.52A10,10,0,0,0,26,7.62v-.1a2.64,2.64,0,0,0-.48.65A3.27,3.27,0,0,1,25,8.9a.79.79,0,0,1-.55.2.63.63,0,0,1-.56-.39,2.24,2.24,0,0,1-.26-1c0-.15,0-.4-.07-.75-.17,0-.37-.21-.57-.53A1.64,1.64,0,0,1,22.64,5.58Z"/>
            <path class="cls-1"
                  d="M32.72,1.91V1.84c.12-.2.41-.3.89-.3h.52a3.23,3.23,0,0,1,1,.18,1.81,1.81,0,0,1,.87.55,1.25,1.25,0,0,1,.35.88,1.45,1.45,0,0,1-.17.74,9.37,9.37,0,0,1-.64.94l-.28.36.53.15a6.74,6.74,0,0,1,.73.21,1,1,0,0,1,.64,1,2.13,2.13,0,0,1-.65,1.5,4.58,4.58,0,0,1-1.6,1.12,4.54,4.54,0,0,1-1.73.4l-.22,0a.76.76,0,0,1-.46-.24.58.58,0,0,1-.22-.45,1.83,1.83,0,0,1,.1-.34l.06-.18a.76.76,0,0,0,0-.21.8.8,0,0,0,0-.11q.27.12.27.21v.06l-.05.14v.07A3,3,0,0,0,34,8.16a6,6,0,0,0,1.43-1,1.59,1.59,0,0,0,.61-1.08A.2.2,0,0,0,36,5.94a.49.49,0,0,0-.25-.06h-.27A1.52,1.52,0,0,0,35,6a4.21,4.21,0,0,0-.69.3,6.23,6.23,0,0,1-.62.26,1.16,1.16,0,0,1-.4.07A.27.27,0,0,1,33,6.43,1.06,1.06,0,0,1,32.92,6a16.8,16.8,0,0,0-.62,2.38l-.07.06a.37.37,0,0,1-.36-.28,1.73,1.73,0,0,1-.13-.63V7.1a1.09,1.09,0,0,1,0-.31.33.33,0,0,1,.12-.17v.2H32c.1-.48.22-1,.34-1.41s.28-1.09.36-1.51a7.35,7.35,0,0,0,.11-1.21c.28,0,.42.41.42,1.25v.7a3.87,3.87,0,0,1,0,.42c0,.09-.06.21-.11.36l.07.14h.06a.94.94,0,0,1,.23-.44A4.48,4.48,0,0,1,34,4.61a4.65,4.65,0,0,0,.92-.92,1.73,1.73,0,0,0,.29-1q0-.13-.33-.24a2.23,2.23,0,0,0-.54-.06,2.45,2.45,0,0,1-.43,0l-.45,0a1,1,0,0,0-.36-.17A1.45,1.45,0,0,1,32.87,2C32.77,2,32.72,1.94,32.72,1.91Z"/>
            <path class="cls-1"
                  d="M37.78,6.58l.06-.08.25,0a1,1,0,0,0,.64-.24,3.46,3.46,0,0,0,.65-.82,5.73,5.73,0,0,1,.73-.83,1,1,0,0,1,.65-.24c.28,0,.42.18.42.53a2.09,2.09,0,0,1-.11.7c-.08.22-.21.55-.41,1a10,10,0,0,0-.44,1.1,3.35,3.35,0,0,0-.13.88,1.08,1.08,0,0,0,.66-.18,2.61,2.61,0,0,0,.53-.67c.19-.31.34-.53.44-.66l.08.11a.32.32,0,0,1,0,.19,2,2,0,0,1-.3.87,4.18,4.18,0,0,1-.74.94,2.49,2.49,0,0,1-.41.34.58.58,0,0,1-.3.11.48.48,0,0,1-.31-.12,2.72,2.72,0,0,1-.37-.41,3.49,3.49,0,0,0-.07-.49c0-.06,0-.14-.05-.24a1.29,1.29,0,0,1,0-.24V8.08a4.47,4.47,0,0,1,.11-.8L39.43,7a4.14,4.14,0,0,0,0-.45h-.06s0,.16-.1.33a3,3,0,0,1-.23.53.47.47,0,0,1-.43.27.88.88,0,0,1-.57-.32.89.89,0,0,1-.3-.64Zm1.76-4.19.14-.13a8.82,8.82,0,0,1,1.47.52c.47.22.71.48.71.78a.25.25,0,0,1-.09.23.6.6,0,0,1-.31.06,2.82,2.82,0,0,1-1.38-.3A1.21,1.21,0,0,1,39.54,2.39Z"/>
            <path class="cls-1"
                  d="M44.08,5.26s.08-.18.19-.4l0-.1,0-.09a.31.31,0,0,1,.09-.11l.73-.17a.21.21,0,0,1,.16,0,.64.64,0,0,1,.14.2,1.85,1.85,0,0,1,.2.6l.12-.07A.58.58,0,0,0,46,5a1.62,1.62,0,0,0,.15-.32,1,1,0,0,1,.25-.41,2.17,2.17,0,0,1,0,.47,2.66,2.66,0,0,1-.12.82A.9.9,0,0,1,46,6a.37.37,0,0,1-.2.07A.25.25,0,0,1,45.61,6l-.27-.3-.16-.16a.19.19,0,0,0-.12-.07H45a.46.46,0,0,1-.21,0,.81.81,0,0,0-.25,0,.22.22,0,0,0-.14.13,2.31,2.31,0,0,0-.15.53,4.64,4.64,0,0,0,0,.7c0,.28,0,.51,0,.68V8a4.09,4.09,0,0,1-.1,1.07.74.74,0,0,1-.39.48l-.11,0a.38.38,0,0,1-.27-.17,1.32,1.32,0,0,1-.2-.43A5.77,5.77,0,0,1,43,8.4a5.64,5.64,0,0,0-.12-.59l0,0s-.05,0-.05,0a.49.49,0,0,1,0-.17s0,0,.08,0l.07,0a.18.18,0,0,0,.1-.12l.06-.21a1,1,0,0,0,.06-.32.56.56,0,0,0,0-.21q-.28-.81-.36-1c0-.07,0-.1-.07-.1a.47.47,0,0,0-.16,0l0-.14c0-.06,0-.12-.05-.18a.47.47,0,0,1,0-.16V5l.36-.15a.82.82,0,0,1,.22,0A1.9,1.9,0,0,1,44.08,5.26Z"/>
            <path class="cls-1"
                  d="M49.46,3.47l0-.1,0-.13a.07.07,0,0,1,0-.06c.15-.05.29-.23.41-.55a1,1,0,0,1,.45-.58.76.76,0,0,0,.33.21l.11,0a.52.52,0,0,1,.18.16l.1.36a.57.57,0,0,1,0,.18,2.05,2.05,0,0,1-.18.81l-.18.44.73-.18a2.05,2.05,0,0,0,.2.19.75.75,0,0,1,.23.31.15.15,0,0,1,0,.13.74.74,0,0,1-.2.18l-.26.18a.88.88,0,0,0-.25.07l-.32.16a4.2,4.2,0,0,1-.52.23c-.24,0-.36.19-.36.56a6.17,6.17,0,0,0,.15,1,4.26,4.26,0,0,0,.07.44,5.3,5.3,0,0,1,.07.6,1.29,1.29,0,0,0,.69-.27,1.87,1.87,0,0,0,.52-.65s0-.18,0-.4a2.27,2.27,0,0,1,0-.34c0-.08,0-.12.07-.12.18.25.32.45.41.59a2,2,0,0,1,.21.49.54.54,0,0,1,0,.22,1.44,1.44,0,0,1-.22.67,3.25,3.25,0,0,1-.78.89,1.36,1.36,0,0,1-.78.42c-.22,0-.42-.18-.61-.53a11.53,11.53,0,0,1-.53-1.24l0-.35,0-.09-.3-1.62a2,2,0,0,0-.34,0L47.6,6a.23.23,0,0,1-.22-.15,1,1,0,0,0-.1-.18l-.11-.12-.11-.12a.32.32,0,0,1,0-.14.11.11,0,0,1,.06-.11,1,1,0,0,1,.23,0h.13l.17.07a4.88,4.88,0,0,0,1.11-.23.71.71,0,0,0,.55-.7l.36-.62Z"/>
            <path class="cls-1"
                  d="M54,1.72l.09-.14a1.46,1.46,0,0,1,.46.41,1.07,1.07,0,0,1,.19.51l.05.39a4.64,4.64,0,0,1,.06.54.79.79,0,0,1,0,.28,2.8,2.8,0,0,1-.15.42l-.1.24c0,.1-.08.2-.12.32h.07a.8.8,0,0,0,.35-.14,1.19,1.19,0,0,1,.35-.1.73.73,0,0,1,.4.13.58.58,0,0,1,.23.36,3.32,3.32,0,0,1,0,.72v.51c0,.33,0,.68,0,1s0,.64,0,.87a.82.82,0,0,0,.08.3.17.17,0,0,0,.18.1.51.51,0,0,0,.42-.16,2.64,2.64,0,0,0,.35-.59l.16-.37a1,1,0,0,1,.16-.26l0,.09c0,.1,0,.15-.05.15s0,.12,0,.2,0,.15,0,.24a4.64,4.64,0,0,1-.25,1.3.61.61,0,0,1-.59.42.87.87,0,0,1-.6-.23,1.93,1.93,0,0,1-.46-.69A5.53,5.53,0,0,1,55,7.51c-.09-.45-.17-1-.25-1.55-.09,0-.19.13-.27.39s-.2.65-.32,1.16-.17.7-.19.76a9.64,9.64,0,0,1-.3,1.08c-.09.21-.19.31-.3.31a.5.5,0,0,1-.41-.13A.89.89,0,0,1,52.78,9c0-.09,0-.17,0-.23s0-.12,0-.16c0-.29,0-.47,0-.56s0-.2,0-.42a.41.41,0,0,1,.24-.15,7.33,7.33,0,0,0,.23-1.1,14.84,14.84,0,0,1,.3-1.5,4,4,0,0,1,.27-.76c0-.11.1-.21.13-.3A2,2,0,0,0,54,3.47a8,8,0,0,0,.12-1.11,1.55,1.55,0,0,0,0-.45.52.52,0,0,0,0-.11S54,1.73,54,1.72Z"/>
            <path class="cls-1"
                  d="M60.41,4c0-.14.08-.4.16-.78s.18-.75.29-1.1.21-.55.3-.58a.83.83,0,0,1,.27-.06.31.31,0,0,1,.29.21,1.43,1.43,0,0,1,.08.51,5.1,5.1,0,0,1-.28,1.42,23.72,23.72,0,0,0-.33,2.79c0,.1,0,.24,0,.41a4.47,4.47,0,0,0,.18,1.29,1.29,1.29,0,0,0,.36-.31.56.56,0,0,0,.1-.33,1.22,1.22,0,0,0,0-.26.58.58,0,0,1,0-.21.53.53,0,0,1,.06-.26A1.24,1.24,0,0,0,62,7l.17.2.18.24a1.91,1.91,0,0,1,.19.28,1.9,1.9,0,0,1,0,.35,2,2,0,0,1-.18.81.91.91,0,0,1-.43.5.8.8,0,0,1-.37.08.72.72,0,0,1-.47-.17,3.16,3.16,0,0,1-.49-.55l-.42-.39a2.36,2.36,0,0,1-.56.75,3,3,0,0,1-.74.41.41.41,0,0,1-.19,0,.52.52,0,0,1-.37-.16A.89.89,0,0,1,58.13,9a3.94,3.94,0,0,1-.25-1.18,2.58,2.58,0,0,1,.28-1.06l-.07-.22.12.11a1.59,1.59,0,0,1,.15-.5l.13-.29a1.67,1.67,0,0,1,.14-.32,1.44,1.44,0,0,0,.11-.29l.2-.23a4,4,0,0,1,.63-.47.69.69,0,0,1,.31-.05,1,1,0,0,0,.3,0,.22.22,0,0,0,.12-.14l.06-.12s0,0,0,.14,0,0,0-.08S60.4,4.09,60.41,4ZM58.76,8l.06,0a2.58,2.58,0,0,0,.6-.48,2.81,2.81,0,0,0,.6-.78c.16-.3.21-.49.16-.6l0-.11-.11,0a1.72,1.72,0,0,0-.9.85,5.82,5.82,0,0,0-.28.59,1.38,1.38,0,0,0-.09.46Z"/>
            <path class="cls-1"
                  d="M63.37,9.05a5.3,5.3,0,0,1-.17-1.37,5.43,5.43,0,0,1,.16-1.29,3.11,3.11,0,0,1,.41-1,1,1,0,0,1,.17-.22c.12-.16.23-.3.31-.42a.92.92,0,0,0,.15-.36l.24,0,.24,0,.22.16.13-.06.09-.06h.28l0-.14.39.26a2.94,2.94,0,0,1,.5.37,1.08,1.08,0,0,1,.24.45,1,1,0,0,1,0,.24,2.31,2.31,0,0,1-.14.65l-.13.41a1.55,1.55,0,0,0,0,.35,1.22,1.22,0,0,0,0,.26s.1.1.28.18a1,1,0,0,0,.2.09l.21.12a.3.3,0,0,1,.13.19c0,.13-.08.23-.35.3l-.18,0a2.21,2.21,0,0,1-.5-.08l-.12,0-.1,0h0c-.06,0-.18.16-.38.44a4.85,4.85,0,0,1-.64.81,1.53,1.53,0,0,1-.65.38,1.58,1.58,0,0,1-.29.05.65.65,0,0,1-.44-.16A.91.91,0,0,1,63.37,9.05Zm.53-.49a.89.89,0,0,0,.05.13.06.06,0,0,0,.06.05l.17,0a2.32,2.32,0,0,0,.76-.64A3.34,3.34,0,0,0,65.53,7a2,2,0,0,0,.11-.67,1.84,1.84,0,0,0,0-.41s0,0-.12-.09-.13-.08-.14-.11a.12.12,0,0,1,0-.1,1.44,1.44,0,0,0-.53.08,1.11,1.11,0,0,0-.64.62,3,3,0,0,0-.34,1.15,3.36,3.36,0,0,0,0,.4A2.76,2.76,0,0,0,63.9,8.56Z"/>
            <path class="cls-1"
                  d="M67.93,5.58c0-.13.08-.19.24-.19a.44.44,0,0,1,.15,0h.18a.16.16,0,0,0,.1,0A1.76,1.76,0,0,0,69.06,5a1.22,1.22,0,0,1,.38-.44,1.3,1.3,0,0,1,.64-.13.49.49,0,0,1,.4.15A.76.76,0,0,1,70.6,5a4.07,4.07,0,0,1-.28,1.18q-.16.47-.24.75a2.08,2.08,0,0,0-.07.55c.17,0,.36-.13.55-.39a9.23,9.23,0,0,0,.72-1.25,4.39,4.39,0,0,1,.66-1.1h.29a.59.59,0,0,1,.47.15.9.9,0,0,1,.13.58,3.36,3.36,0,0,1-.22.84c0,.13-.06.22-.08.29-.12.39-.2.65-.23.79s-.1.71-.17,1.44c0,.24,0,.4,0,.48s0,.27,0,.63a2.18,2.18,0,0,1,0,.44,2.28,2.28,0,0,1-.05.44,4.33,4.33,0,0,1-.78,1.8,1.84,1.84,0,0,1-1.55.77.67.67,0,0,1-.55-.4,1.53,1.53,0,0,1-.26-.78,4.74,4.74,0,0,1,.2-1.55A3.46,3.46,0,0,1,70,9.47v.09c0,.07,0,.13,0,.18a.78.78,0,0,0,0,.14s0,.06,0,.06,0,0,.09-.09a6.7,6.7,0,0,0-.24.65,1.31,1.31,0,0,0-.07.44c0,.44.12.65.36.65s.6-.29.83-.89a1.73,1.73,0,0,0,.1-.33,1.45,1.45,0,0,0,0-.3V9.83a2.59,2.59,0,0,1,0-.52,11.18,11.18,0,0,0,.19-1.69v-.1a2.64,2.64,0,0,0-.48.65,3.63,3.63,0,0,1-.53.73.79.79,0,0,1-.55.2.66.66,0,0,1-.57-.39,2.39,2.39,0,0,1-.25-1c0-.15,0-.4-.07-.75-.18,0-.37-.21-.58-.53A1.71,1.71,0,0,1,67.93,5.58Z"/>
            <path class="cls-1"
                  d="M82.7,0a1.27,1.27,0,0,1,.69.21,1.47,1.47,0,0,1,.5.55,1.08,1.08,0,0,0,.16.2,1.6,1.6,0,0,0,.26.19,2.17,2.17,0,0,1,.33.27.48.48,0,0,1,.11.28,1,1,0,0,1-.28.09,1,1,0,0,0-.37.12.39.39,0,0,0-.16.25,1.76,1.76,0,0,1-.43.64,5.74,5.74,0,0,1-.83.58,5.29,5.29,0,0,0-.5.32,10.17,10.17,0,0,1,1.32-.44,4.72,4.72,0,0,1,1.09-.14A2.89,2.89,0,0,1,86,3.47a.86.86,0,0,1,.36.23.45.45,0,0,1,.15.32.33.33,0,0,1-.11.25,13.62,13.62,0,0,1-1.34.42L83.91,5a5.89,5.89,0,0,0-.77.31,1.13,1.13,0,0,0,.4.05h.51a.72.72,0,0,1,.32.11.58.58,0,0,1,.19.3L84,6.2l-.62.38a1.26,1.26,0,0,1-.12.44,2.56,2.56,0,0,0-.12.26L83,7.57a1.25,1.25,0,0,0-.1.48l0,.21a6.37,6.37,0,0,1,3,.64.28.28,0,0,1,.11.22.3.3,0,0,1-.09.23.29.29,0,0,1-.21.09.24.24,0,0,1-.2-.07,2.66,2.66,0,0,0-.63-.27c-.22-.06-.54-.13-1-.21a5.67,5.67,0,0,1-1.06-.24,1.33,1.33,0,0,0,0,.35,5.31,5.31,0,0,0,.08.72,4.73,4.73,0,0,1,.08.72,1.15,1.15,0,0,1-.25.77,1.34,1.34,0,0,1-.51-.7,3.23,3.23,0,0,1-.14-1.07c0,.05,0,.11.09.19l.11.26,0-1.26A1,1,0,0,0,82,8.58a.76.76,0,0,0-.27.05l-.35.17L81.07,9a9.56,9.56,0,0,1-1.13,1,3.92,3.92,0,0,1-1,.54l.69-.61c.6-.53,1.13-1,1.57-1.49a7.18,7.18,0,0,0,1-1.38l-.47.15a2.73,2.73,0,0,1-1,.26.73.73,0,0,1-.73-.5h.17a1.34,1.34,0,0,0,.52-.1,6.37,6.37,0,0,0,.69-.33l.54-.27.17-.07a1.66,1.66,0,0,0,.32-.19.51.51,0,0,0,.2-.36L82,5.83l.25-.21a1.12,1.12,0,0,0,.27-.26.36.36,0,0,0,.09-.24l0-.15a.78.78,0,0,0-.29-.1V4.7a.46.46,0,0,1,.23-.08.32.32,0,0,1,.26.16.72.72,0,0,1,.14.36l1.19-.66a3.75,3.75,0,0,0,.81-.68,10.69,10.69,0,0,0-2,.47c-.74.26-1.53.55-2.37.88a.66.66,0,0,1-.34.07,3,3,0,0,1-.71-.12A24.86,24.86,0,0,1,80,7.82l-.27.09a2.34,2.34,0,0,1-.51-1,6.18,6.18,0,0,1-.13-1.42V5q0-.41,0-.72a.48.48,0,0,1,.16.13,1.51,1.51,0,0,1,.14.21l.11.19a6.39,6.39,0,0,0,.85-.31,5.41,5.41,0,0,1,.54-.23l.82-.35a1.27,1.27,0,0,1-.34-.83.73.73,0,0,1,.16-.5,1.79,1.79,0,0,0-.53-.06h-.52a.53.53,0,0,1-.31-.15A.75.75,0,0,1,79.93,2,1.38,1.38,0,0,0,80.3,2,2.37,2.37,0,0,0,80.82,2c.18,0,.41-.11.71-.21a.9.9,0,0,0-.08-.48A.5.5,0,0,0,81.12,1V.85a1.06,1.06,0,0,1,.31,0A.89.89,0,0,1,82,1a.71.71,0,0,1,.29.47l.35-.05a.92.92,0,0,1-.12-.2A1.08,1.08,0,0,1,83.15,1l.18,0a.51.51,0,0,0-.06-.33A1.55,1.55,0,0,0,83,.32,2.79,2.79,0,0,1,82.7,0Zm-.48,3.43a6.85,6.85,0,0,0,.6-.71,2,2,0,0,0,.27-.54h-.17a.51.51,0,0,0-.53.3A2.39,2.39,0,0,0,82.22,3.43Z"/>
            <path class="cls-1"
                  d="M94.7,0a1.27,1.27,0,0,1,.69.21,1.47,1.47,0,0,1,.5.55,1.08,1.08,0,0,0,.16.2,1.6,1.6,0,0,0,.26.19,2.17,2.17,0,0,1,.33.27.48.48,0,0,1,.11.28,1,1,0,0,1-.28.09,1,1,0,0,0-.37.12.39.39,0,0,0-.16.25,1.76,1.76,0,0,1-.43.64,5.74,5.74,0,0,1-.83.58,5.29,5.29,0,0,0-.5.32,10.17,10.17,0,0,1,1.32-.44,4.72,4.72,0,0,1,1.09-.14A2.89,2.89,0,0,1,98,3.47a.86.86,0,0,1,.36.23.45.45,0,0,1,.15.32.33.33,0,0,1-.11.25,13.62,13.62,0,0,1-1.34.42L95.91,5a5.89,5.89,0,0,0-.77.31,1.13,1.13,0,0,0,.4.05h.51a.72.72,0,0,1,.32.11.58.58,0,0,1,.19.3L96,6.2l-.62.38a1.26,1.26,0,0,1-.12.44,2.56,2.56,0,0,0-.12.26L95,7.57a1.25,1.25,0,0,0-.1.48l0,.21a6.37,6.37,0,0,1,3,.64.28.28,0,0,1,.11.22.3.3,0,0,1-.09.23.29.29,0,0,1-.21.09.24.24,0,0,1-.2-.07,2.66,2.66,0,0,0-.63-.27c-.22-.06-.54-.13-1-.21a5.67,5.67,0,0,1-1.06-.24,1.33,1.33,0,0,0,0,.35,5.31,5.31,0,0,0,.08.72,4.73,4.73,0,0,1,.08.72,1.15,1.15,0,0,1-.25.77,1.34,1.34,0,0,1-.51-.7,3.23,3.23,0,0,1-.14-1.07c0,.05,0,.11.09.19l.11.26,0-1.26A1,1,0,0,0,94,8.58a.76.76,0,0,0-.27.05l-.35.17L93.07,9a9.56,9.56,0,0,1-1.13,1,3.92,3.92,0,0,1-1,.54l.69-.61c.6-.53,1.13-1,1.57-1.49a7.18,7.18,0,0,0,1-1.38l-.47.15a2.73,2.73,0,0,1-1,.26.73.73,0,0,1-.73-.5h.17a1.34,1.34,0,0,0,.52-.1,6.37,6.37,0,0,0,.69-.33l.54-.27.17-.07a1.66,1.66,0,0,0,.32-.19.51.51,0,0,0,.2-.36L94,5.83l.25-.21a1.12,1.12,0,0,0,.27-.26.36.36,0,0,0,.09-.24l0-.15a.78.78,0,0,0-.29-.1V4.7a.46.46,0,0,1,.23-.08.32.32,0,0,1,.26.16.72.72,0,0,1,.14.36l1.19-.66a3.75,3.75,0,0,0,.81-.68,10.69,10.69,0,0,0-2,.47c-.74.26-1.53.55-2.37.88a.66.66,0,0,1-.34.07,3,3,0,0,1-.71-.12A24.86,24.86,0,0,1,92,7.82l-.27.09a2.34,2.34,0,0,1-.51-1,6.18,6.18,0,0,1-.13-1.42V5q0-.41,0-.72a.48.48,0,0,1,.16.13,1.51,1.51,0,0,1,.14.21l.11.19a6.39,6.39,0,0,0,.85-.31,5.41,5.41,0,0,1,.54-.23l.82-.35a1.27,1.27,0,0,1-.34-.83.73.73,0,0,1,.16-.5,1.79,1.79,0,0,0-.53-.06h-.52a.53.53,0,0,1-.31-.15A.75.75,0,0,1,91.93,2,1.38,1.38,0,0,0,92.3,2,2.37,2.37,0,0,0,92.82,2c.18,0,.41-.11.71-.21a.9.9,0,0,0-.08-.48A.5.5,0,0,0,93.12,1V.85a1.06,1.06,0,0,1,.31,0A.89.89,0,0,1,94,1a.71.71,0,0,1,.29.47l.35-.05a.92.92,0,0,1-.12-.2A1.08,1.08,0,0,1,95.15,1l.18,0a.51.51,0,0,0-.06-.33A1.55,1.55,0,0,0,95,.32,2.79,2.79,0,0,1,94.7,0Zm-.48,3.43a6.85,6.85,0,0,0,.6-.71,2,2,0,0,0,.27-.54h-.17a.51.51,0,0,0-.53.3A2.39,2.39,0,0,0,94.22,3.43Z"/>
        </g>
    </g>
</svg>